<svg width="800" height="600" xmlns="http://www.w3.org/2000/svg">
 <!-- Created with Method Draw - http://github.com/duopixel/Method-Draw/ -->
 <g>
  <title>background</title>
  <rect fill="#fff" id="canvas_background" height="602" width="802" y="-1" x="-1"/>
  <g display="none" overflow="visible" y="0" x="0" height="100%" width="100%" id="canvasGrid">
   <rect fill="url(#gridpattern)" stroke-width="0" y="0" x="0" height="100%" width="100%"/>
  </g>
 </g>
 <g>
  <title>Layer 1</title>
  <path d="m131.785,104.73207c-1,0 -1.06081,3.02476 1,8c2.91443,7.03606 12.15633,19.79704 20,26c6.12611,4.84467 9.93979,7.06407 11,8c8.54765,7.54572 12.4445,11.22902 18,13c12.42249,3.96004 23,1 37,1c6,0 24.0087,-0.65131 31,-1c10.03738,-0.50063 17.34457,-7.74283 21,-13c6.65756,-9.5748 8.98059,-19.0971 8,-24c-2.5495,-12.74755 -21.67102,-25.98798 -40,-28c-11.92834,-1.3094 -24.3663,-4.5345 -37,12c-14.21271,18.60105 -9,45 -9,68c0,32 6.84651,47.97337 16,52c14.90079,6.55489 22,3 52,3c16,0 34.0242,1.16364 62,0c12.03119,-0.50043 21.14514,-1.93227 25,-3c5.61938,-1.55647 10.62531,-8.41362 15,-12c8.36496,-6.85764 18.56503,-8.96999 26,-21c4.98752,-8.06998 3.66251,-14.31001 2,-17c-2.974,-4.81201 -22.35995,-11.80394 -27,-8c-15.77313,12.93089 -8.11414,96.98604 21,145.99998c11.96597,20.14487 24.05585,21.41669 42,14c22.04492,-9.1116 40.55798,-30.03845 50,-45c2.87402,-4.55411 4.91464,-14.9866 -2,-22c-10.05219,-10.19576 -31.3559,-8.22256 -35,-2c-19.76675,33.75317 2.05527,61.50284 13,68c15.23746,9.04544 43.4335,8.50415 68.99997,-4c12.95569,-6.33643 45.4433,-38.60526 47,-56c1.69592,-18.95055 -16.58954,-43.39993 -30,-42.99998c-30.00333,0.89482 -36.8512,56.89171 -34.99997,114.99998c1.44559,45.37521 11.80307,50.49426 28.99997,52c13.94666,1.22116 47.66888,3.98267 112,-39c22.99762,-15.36581 21,-22 21,-22c-4,0 -10,13 -10,42c0,34 0.42615,55.70157 20,64c11.08643,4.70013 25.44373,4.78613 38,-6c8.20496,-7.04828 5.1347,-15.1344 -7,-16c-43.89984,-3.13153 -93.84723,8.71423 -139,18c-36.88446,7.58536 -54.07477,11.00815 -80.99997,9c-20.16772,-1.50418 -29.41885,-7.41885 -31,-9c-1.58115,-1.58115 -4.46008,-9.41168 -11,-15c-11.89981,-10.1683 -32.76483,-16.44299 -53,-19c-36.76166,-4.64539 -72.30411,0.42081 -117,-12c-16.8266,-4.67606 -21.16594,-8.49347 -19,-13c2.77377,-5.77115 37.96756,-6.50665 48,1c9.05862,6.77802 20.27051,25.022 10,36c-10.93094,11.68393 -33.97461,-1.22104 -73,-35c-25.13399,-21.75507 -25,-38 -26,-49l0,-7l1,-3" id="svg_1" stroke-width="1.5" stroke="#000" fill="none"/>
 </g>
</svg>