<?xml version="1.0" encoding="UTF-8" standalone="no"?>
<!DOCTYPE svg PUBLIC "-//W3C//DTD SVG 1.1//EN" "http://www.w3.org/Graphics/SVG/1.1/DTD/svg11.dtd">
<svg version="1.1" xmlns="http://www.w3.org/2000/svg" xmlns:xlink="http://www.w3.org/1999/xlink" preserveAspectRatio="xMidYMid meet" viewBox="0 0 640 640" width="640" height="640"><defs><path d="M271.41 145.63C281.42 145.63 289.53 153.74 289.53 163.75C289.53 192.17 289.53 259.34 289.53 287.77C289.53 297.77 281.42 305.89 271.41 305.89C229.98 305.89 123.81 305.89 82.39 305.89C72.38 305.89 64.27 297.77 64.27 287.77C64.27 259.34 64.27 192.17 64.27 163.75C64.27 153.74 72.38 145.63 82.39 145.63C123.81 145.63 229.98 145.63 271.41 145.63Z" id="a39Wa2yfH3"></path><path d="M541.1 139.42C551.95 139.42 560.74 148.21 560.74 159.06C560.74 188.15 560.74 255.79 560.74 284.88C560.74 295.73 551.95 304.52 541.1 304.52C497.9 304.52 387.93 304.52 344.73 304.52C333.89 304.52 325.09 295.73 325.09 284.88C325.09 255.79 325.09 188.15 325.09 159.06C325.09 148.21 333.89 139.42 344.73 139.42C387.93 139.42 497.9 139.42 541.1 139.42Z" id="f2OJU2frw4"></path></defs><g><g><g><use xlink:href="#a39Wa2yfH3" opacity="1" fill="#843906" fill-opacity="1"></use></g><g><use xlink:href="#f2OJU2frw4" opacity="1" fill="#f1bed0" fill-opacity="1"></use></g></g></g></svg>