<?xml version="1.0" standalone="no"?>
<!DOCTYPE svg PUBLIC "-//W3C//DTD SVG 20010904//EN"
 "http://www.w3.org/TR/2001/REC-SVG-20010904/DTD/svg10.dtd">
<svg version="1.0" xmlns="http://www.w3.org/2000/svg"
 width="600.000000pt" height="400.000000pt" viewBox="0 0 600.000000 400.000000"
 preserveAspectRatio="xMidYMid meet">

<g transform="translate(0.000000,400.000000) scale(0.100000,-0.100000)"
fill="#000000" stroke="none">
<path d="M3580 3985 c-307 -48 -618 -237 -815 -494 -55 -73 -160 -250 -176
-298 -12 -38 -12 -38 -70 -18 -115 41 -182 50 -364 50 -166 0 -188 -3 -279
-28 -115 -32 -255 -95 -347 -157 -93 -63 -233 -203 -294 -295 -68 -103 -98
-164 -135 -272 -16 -49 -33 -88 -37 -88 -4 1 -48 5 -96 9 -169 16 -371 -29
-526 -117 -87 -49 -227 -177 -282 -259 -60 -87 -105 -185 -131 -279 -31 -117
-31 -317 0 -434 109 -396 454 -658 867 -657 133 0 228 18 335 62 l67 26 34
-29 c46 -39 182 -129 245 -160 83 -42 247 -95 367 -119 147 -29 433 -32 572
-5 174 34 366 103 473 171 l42 26 62 -51 c338 -281 813 -315 1185 -83 85 53
226 183 280 257 20 29 38 54 39 56 2 2 32 -8 68 -22 160 -65 355 -79 511 -38
335 89 594 365 692 739 38 145 43 347 14 502 -65 338 -262 611 -536 745 -79
39 -128 55 -250 84 -28 6 -30 11 -47 93 -35 175 -115 366 -220 523 -69 103
-199 240 -307 321 -100 76 -294 174 -401 204 -176 49 -371 61 -540 35z m360
-79 c391 -59 726 -310 914 -685 51 -100 102 -257 121 -371 17 -100 29 -120 72
-120 49 0 170 -33 241 -66 132 -60 266 -174 351 -298 125 -181 190 -421 178
-655 -21 -413 -267 -765 -612 -878 -62 -20 -107 -27 -200 -30 -139 -6 -214 8
-341 63 -45 19 -87 32 -95 29 -8 -3 -30 -31 -49 -62 -45 -73 -169 -199 -245
-250 -142 -96 -267 -142 -439 -163 -241 -31 -503 53 -711 228 -41 34 -81 62
-90 62 -8 0 -32 -11 -53 -24 -240 -151 -579 -227 -878 -196 -313 32 -537 124
-756 311 l-37 32 -83 -36 c-250 -107 -552 -86 -770 55 -87 57 -141 103 -197
173 -127 158 -191 354 -177 545 25 352 273 641 622 726 84 21 275 24 353 6 69
-16 76 -10 100 84 45 175 133 326 266 460 94 95 173 150 299 210 146 69 240
88 436 89 175 0 242 -11 377 -61 34 -13 69 -21 77 -18 8 3 26 36 41 72 62 157
177 325 310 451 271 256 622 370 975 317z"/>
</g>
</svg>
